<svg xmlns="http://www.w3.org/2000/svg" xmlns:xlink="http://www.w3.org/1999/xlink" viewBox="0,0,256,256" width="100px" height="100px"><g fill="#4f4f4f" fill-rule="nonzero" stroke="none" stroke-width="1" stroke-linecap="butt" stroke-linejoin="miter" stroke-miterlimit="10" stroke-dasharray="" stroke-dashoffset="0" font-family="none" font-weight="none" font-size="none" text-anchor="none" style="mix-blend-mode: normal"><g transform="scale(5.12,5.12)"><path d="M6,4c-1.09306,0 -2,0.90694 -2,2v38c0,1.09306 0.90694,2 2,2h38c1.09306,0 2,-0.90694 2,-2v-38c0,-1.09306 -0.90694,-2 -2,-2zM6,6h38v38h-38zM16,14v22h9v-2.5h-6.5v-19.5zM33.48828,19.75c-1.437,0 -2.35814,0.652 -2.86914,2.125l-0.125,0.375v-2.25h-2.49414c0.031,1.152 0,16 0,16h2.49414l0.0293,-9.25c0,-0.544 0.0317,-0.9922 0.0957,-1.4082c0.255,-1.792 1.30514,-3.24805 2.86914,-3.24805c0.193,0 0.35172,-0.00075 0.51172,0.03125v-2.34375c-0.16,-0.032 -0.31972,-0.03125 -0.51172,-0.03125z"></path></g></g></svg>