<svg xmlns="http://www.w3.org/2000/svg" xmlns:xlink="http://www.w3.org/1999/xlink" viewBox="0,0,256,256" width="100px" height="100px"><g fill="#4f4f4f" fill-rule="nonzero" stroke="none" stroke-width="1" stroke-linecap="butt" stroke-linejoin="miter" stroke-miterlimit="10" stroke-dasharray="" stroke-dashoffset="0" font-family="none" font-weight="none" font-size="none" text-anchor="none" style="mix-blend-mode: normal"><g transform="scale(4,4)"><path d="M23.77344,12c-10.918,0 -11.77344,0.85444 -11.77344,11.77344v16.45312c0,10.918 0.85544,11.77344 11.77344,11.77344h16.45312c10.918,0 11.77344,-0.85444 11.77344,-11.77344v-16.45312c0,-10.919 -0.85444,-11.77344 -11.77344,-11.77344zM21.16797,16h21.66406c4.793,0 5.16797,0.37497 5.16797,5.16797v21.66406c0,4.793 -0.37597,5.16797 -5.16797,5.16797h-21.66406c-4.793,0 -5.16797,-0.37597 -5.16797,-5.16797v-21.66406c0,-4.793 0.37497,-5.16797 5.16797,-5.16797zM33.14453,27.39453c-2.25,0 -3.83203,1.67902 -3.83203,4.16602c0,2.496 1.58203,4.17578 3.83203,4.17578c0.466,0 0.90597,-0.0797 1.29297,-0.2207l0.51758,0.70313c0.193,0.282 0.38639,0.38672 0.65039,0.38672c0.369,0 0.63281,-0.25542 0.63281,-0.60742c0,-0.185 -0.05251,-0.31692 -0.22852,-0.54492l-0.43164,-0.58008c0.87,-0.721 1.39744,-1.8805 1.39844,-3.3125c0,-2.487 -1.59103,-4.16602 -3.83203,-4.16602zM24.9375,27.41992c-1.855,0 -3.12891,1.01017 -3.12891,2.45117c0,1.134 0.75553,1.80348 2.14453,2.14648l1.17773,0.31445c1.019,0.255 1.36133,0.49211 1.36133,1.03711c0,0.685 -0.66787,1.06445 -1.54688,1.06445c-0.835,0 -1.40581,-0.30841 -1.75781,-0.94141c-0.193,-0.298 -0.40352,-0.4375 -0.72852,-0.4375c-0.431,0 -0.71289,0.27136 -0.71289,0.69336c0,0.159 0.03623,0.31661 0.11523,0.47461c0.333,0.817 1.40552,1.5293 2.97852,1.5293c2.031,0 3.34961,-0.98548 3.34961,-2.52148c0,-1.187 -0.82605,-1.85366 -2.37305,-2.22266l-1.11719,-0.28125c-0.844,-0.202 -1.17773,-0.4838 -1.17773,-0.9668c0,-0.651 0.53609,-1.05664 1.37109,-1.05664c0.783,0 1.28361,0.29941 1.59961,0.94141c0.193,0.29 0.38805,0.4375 0.74805,0.4375c0.404,0 0.69336,-0.2272 0.69336,-0.6582c0,-0.141 -0.03428,-0.29861 -0.11328,-0.47461c-0.352,-0.879 -1.42381,-1.5293 -2.88281,-1.5293zM39.62109,27.6875c-0.571,0 -0.86914,0.37661 -0.86914,0.97461v6.10156c0,0.597 0.30714,0.98242 0.86914,0.98242h3.90234c0.43,0 0.73047,-0.27194 0.73047,-0.71094c0,-0.439 -0.29947,-0.70312 -0.73047,-0.70312h-3.02148v-5.66992c0,-0.607 -0.31886,-0.97461 -0.88086,-0.97461zM33.14453,28.74023c1.283,0 2.13477,1.08931 2.13477,2.82031c0,0.888 -0.2362,1.60822 -0.6582,2.07422l-0.42187,-0.55469c-0.115,-0.149 -0.23669,-0.21094 -0.42969,-0.21094c-0.29,0 -0.54492,0.22053 -0.54492,0.51953c0,0.15 0.0522,0.27287 0.1582,0.42188l0.35938,0.49219c-0.185,0.053 -0.38666,0.08789 -0.59766,0.08789c-1.292,0 -2.14648,-1.09008 -2.14648,-2.83008c0,-1.731 0.85448,-2.82031 2.14648,-2.82031z"></path></g></g></svg>